<?xml version="1.0" standalone="no"?>
<!DOCTYPE svg PUBLIC "-//W3C//DTD SVG 20010904//EN"
 "http://www.w3.org/TR/2001/REC-SVG-20010904/DTD/svg10.dtd">
<svg version="1.0" xmlns="http://www.w3.org/2000/svg"
 width="602.000000pt" height="540.000000pt" viewBox="0 0 602.000000 540.000000"
 preserveAspectRatio="xMidYMid meet">
<metadata>
Created by potrace 1.10, written by Peter Selinger 2001-2011
</metadata>
<g transform="translate(0.000000,540.000000) scale(0.050000,-0.050000)"
fill="#000000" stroke="none">
<path d="M7273 9716 c-181 -38 -263 -180 -313 -540 -63 -452 417 -662 596
-260 208 469 65 874 -283 800z"/>
<path d="M2910 9555 c-131 -47 -458 -338 -428 -381 4 -6 -11 -32 -35 -57 -68
-75 -230 -507 -339 -907 -3 -11 -11 -38 -17 -60 -44 -156 -222 -960 -239
-1080 -4 -22 -16 -89 -28 -150 -12 -60 -26 -137 -31 -170 -5 -33 -29 -172 -53
-310 -25 -137 -47 -277 -50 -310 -3 -33 -19 -132 -36 -220 -17 -88 -41 -241
-54 -340 -13 -99 -31 -216 -42 -260 -10 -44 -27 -152 -37 -240 -10 -88 -47
-344 -81 -570 -69 -454 -88 -673 -59 -691 10 -6 19 -27 19 -47 0 -71 170 -182
280 -182 117 0 288 125 309 226 3 13 11 38 18 54 7 17 21 107 31 200 10 94 38
292 61 440 24 149 47 315 52 369 5 55 14 115 20 133 6 19 14 62 18 97 5 35 13
88 19 117 5 30 15 99 22 154 6 55 19 145 29 200 11 55 23 132 28 170 22 156
76 495 93 570 9 44 32 170 50 280 18 110 44 254 59 320 15 66 26 134 26 150 0
17 15 86 33 154 18 68 31 131 29 140 -2 9 6 52 17 96 12 44 41 166 65 270 112
501 321 1101 400 1149 23 15 122 -134 232 -349 42 -82 88 -163 101 -180 14
-16 24 -37 24 -46 -2 -15 24 -78 144 -344 20 -44 65 -156 101 -250 35 -93 77
-197 92 -230 14 -33 43 -109 64 -170 61 -176 362 -984 394 -1056 16 -36 29
-81 29 -101 0 -19 8 -44 18 -54 9 -10 46 -100 82 -199 36 -99 82 -218 102
-264 21 -46 38 -96 38 -110 0 -15 12 -45 27 -67 15 -21 34 -66 41 -98 8 -33
36 -105 61 -160 26 -56 53 -122 61 -148 7 -25 44 -113 81 -195 38 -81 67 -151
66 -153 -8 -15 226 -449 318 -589 506 -779 1173 -556 1506 504 25 77 51 149
58 160 8 11 26 74 41 140 15 66 33 129 41 140 12 19 33 89 50 177 17 84 115
493 150 623 20 77 47 199 59 270 13 72 35 189 50 260 15 72 42 211 60 310 18
99 45 243 60 320 16 77 43 221 61 320 17 99 42 225 53 280 22 102 45 254 67
450 34 290 -237 478 -473 329 -120 -76 -143 -139 -228 -619 -35 -197 -77 -423
-120 -640 -96 -488 -133 -680 -139 -727 -10 -74 -188 -860 -212 -935 -11 -34
-24 -79 -28 -100 -21 -98 -118 -425 -143 -481 -15 -35 -28 -71 -28 -81 0 -63
-209 -485 -240 -486 -25 0 -187 276 -290 493 -184 388 -203 430 -265 587 -32
83 -79 200 -103 260 -25 61 -104 272 -176 470 -72 198 -152 414 -177 480 -70
184 -190 514 -209 570 -29 90 -183 488 -196 509 -7 12 -14 31 -16 43 -2 13
-17 53 -33 90 -16 38 -43 104 -61 148 -467 1210 -916 1739 -1344 1585z"/>
</g>
</svg>
