<?xml version="1.0" standalone="no"?>
<!DOCTYPE svg PUBLIC "-//W3C//DTD SVG 20010904//EN"
 "http://www.w3.org/TR/2001/REC-SVG-20010904/DTD/svg10.dtd">
<svg version="1.0" xmlns="http://www.w3.org/2000/svg"
 width="300.000000pt" height="300.000000pt" viewBox="0 0 300.000000 300.000000"
 preserveAspectRatio="xMidYMid meet">
<metadata>
Created by potrace 1.10, written by Peter Selinger 2001-2011
</metadata>
<g transform="translate(0.000000,300.000000) scale(0.050000,-0.050000)"
fill="#000000" stroke="none">
<path style=" stroke:none;fill-rule:nonzero;fill:rgb(100%,100%,100%);fill-opacity:0.8;" d="M1770 5803 c-358 -164 -614 -743 -972 -2203 -166 -675 -638 -2969
-638 -3099 0 -358 509 -447 636 -111 13 33 99 443 192 910 346 1736 546 2583
764 3240 89 268 203 540 226 540 22 -1 215 -512 291 -770 154 -522 154 -522
442 -1620 551 -2106 750 -2510 1233 -2510 592 0 868 696 1565 3948 89 414 35
578 -205 629 -253 54 -363 -72 -456 -526 -361 -1746 -812 -3383 -905 -3280
-78 87 -341 947 -603 1969 -84 330 -107 415 -252 950 -410 1515 -665 1971
-1102 1970 -88 -1 -164 -14 -216 -37z m392 -266 c260 -147 448 -669 987 -2746
320 -1229 494 -1752 642 -1929 330 -392 601 281 1170 2906 151 696 164 732
269 732 l70 0 0 -147 c0 -159 -14 -231 -222 -1173 -462 -2084 -739 -2766
-1124 -2766 -353 0 -549 430 -1015 2221 -255 978 -295 1129 -392 1465 -236
826 -403 1160 -577 1160 -301 0 -628 -1067 -1191 -3884 -168 -840 -197 -942
-275 -953 -147 -20 -140 99 67 1132 690 3445 1030 4297 1591 3982z"/>
<path style=" stroke:none;fill-rule:nonzero;fill:rgb(100%,100%,50%);fill-opacity:0.8;" d="M5350 5797 c-131 -73 -196 -202 -250 -495 -55 -304 183 -522 445
-406 213 94 349 607 209 791 -94 123 -286 175 -404 110z m206 -381 c8 -175
-47 -296 -132 -296 -79 0 -104 34 -104 141 0 296 223 443 236 155z"/>
</g>
</svg>
