<?xml version="1.0" standalone="no"?>
<!DOCTYPE svg PUBLIC "-//W3C//DTD SVG 20010904//EN"
 "http://www.w3.org/TR/2001/REC-SVG-20010904/DTD/svg10.dtd">
<svg version="1.0" xmlns="http://www.w3.org/2000/svg"
 width="300.000000pt" height="278.000000pt" viewBox="0 0 300.000000 278.000000"
 preserveAspectRatio="xMidYMid meet">
<metadata>
Created by potrace 1.10, written by Peter Selinger 2001-2011
</metadata>
<g transform="translate(0.000000,278.000000) scale(0.100000,-0.100000)"
fill="#309" stroke="none">
<path d="M2464 2740 c9 -14 43 -65 77 -115 75 -111 179 -320 218 -440 57 -172
74 -282 75 -470 0 -186 -18 -302 -70 -447 -194 -543 -738 -879 -1234 -762 -36
9 -117 41 -180 72 -102 50 -125 66 -206 146 -103 103 -157 196 -173 301 -15
102 14 227 63 260 28 20 36 19 36 -5 0 -55 35 -182 68 -245 93 -177 293 -285
532 -285 280 0 520 157 650 425 73 149 85 203 84 375 -1 215 -42 364 -150 538
-164 262 -471 439 -823 472 -226 21 -454 -22 -664 -126 -140 -70 -234 -138
-353 -258 -202 -204 -334 -450 -391 -733 -24 -120 -24 -392 0 -518 60 -309
201 -577 426 -805 57 -58 96 -94 87 -80 -9 14 -46 69 -82 123 -123 183 -219
410 -265 627 -30 136 -32 409 -5 535 114 530 508 913 992 967 176 20 369 -22
528 -114 105 -61 233 -193 279 -288 58 -120 66 -251 20 -348 -14 -30 -59 -70
-67 -61 -2 2 -8 40 -15 84 -29 209 -177 375 -391 440 -83 25 -259 30 -350 11
-256 -54 -480 -277 -562 -563 -20 -67 -23 -100 -22 -228 1 -127 5 -165 27
-247 113 -427 469 -713 946 -758 223 -21 453 22 656 122 108 54 137 71 231
144 263 204 453 514 521 851 25 124 25 383 -1 518 -58 309 -197 574 -425 805
-57 58 -96 94 -87 80z"/>
</g>
</svg>
