<?xml version="1.0" standalone="no"?>
<!DOCTYPE svg PUBLIC "-//W3C//DTD SVG 20010904//EN"
 "http://www.w3.org/TR/2001/REC-SVG-20010904/DTD/svg10.dtd">
<svg version="1.0" xmlns="http://www.w3.org/2000/svg"
 width="289.000000pt" height="293.000000pt" viewBox="0 0 289.000000 293.000000"
 preserveAspectRatio="xMidYMid meet">
<metadata>
Created by potrace 1.10, written by Peter Selinger 2001-2011
</metadata>
<g transform="translate(0.000000,293.000000) scale(0.100000,-0.100000)"
fill="#000000" stroke="none">
<path d="M920 2541 c-76 -24 -136 -78 -172 -156 -23 -50 -23 -53 -26 -547 l-3
-498 -44 0 c-93 0 -125 -36 -125 -142 0 -130 39 -219 130 -301 90 -81 125 -87
499 -87 l317 0 17 69 c10 38 34 95 53 128 l36 58 -4 112 c-5 170 24 157 -369
161 l-320 3 3 462 3 462 24 34 c49 68 63 71 464 71 l357 0 0 -580 c0 -509 2
-580 15 -580 8 0 15 4 15 9 0 9 120 51 145 51 13 0 15 51 15 374 l0 373 75 6
c167 12 276 132 262 286 -8 93 -59 169 -142 214 -40 22 -46 22 -620 24 -319 1
-591 -2 -605 -6z m1162 -201 c25 -26 29 -36 24 -63 -9 -48 -39 -67 -102 -67
l-54 0 0 59 c0 52 3 62 26 80 37 29 70 26 106 -9z m-664 -1268 l3 -83 -283 3
c-264 3 -285 4 -318 24 -44 25 -80 78 -80 116 l0 28 338 -2 337 -3 3 -83z"/>
<path d="M1124 2194 c-31 -15 -54 -50 -54 -80 0 -31 30 -72 61 -83 42 -15 366
-15 408 0 31 11 61 52 61 83 0 31 -24 66 -55 81 -47 22 -376 22 -421 -1z"/>
<path d="M1120 1847 c-53 -27 -64 -89 -24 -136 l26 -31 210 0 210 0 30 30 c26
27 30 36 25 67 -4 20 -16 46 -27 57 -19 20 -34 21 -223 24 -149 2 -208 -1
-227 -11z"/>
<path d="M1890 1151 c-297 -95 -393 -460 -181 -684 270 -285 745 -78 718 314
-18 265 -287 451 -537 370z m242 -139 c182 -80 224 -330 79 -465 -67 -63 -110
-80 -201 -80 -59 -1 -84 4 -120 22 -134 69 -197 210 -154 347 24 78 108 165
180 188 63 20 156 15 216 -12z"/>
<path d="M1982 928 c-8 -8 -12 -49 -12 -117 l0 -104 -23 21 c-34 32 -75 29
-83 -5 -6 -23 2 -34 63 -95 39 -37 76 -68 83 -68 6 0 43 30 81 67 56 53 69 72
67 93 -4 33 -41 39 -79 11 l-29 -22 0 104 c0 105 -7 127 -40 127 -9 0 -21 -5
-28 -12z"/>
</g>
</svg>
