<?xml version="1.0" standalone="no"?>
<!DOCTYPE svg PUBLIC "-//W3C//DTD SVG 20010904//EN"
 "http://www.w3.org/TR/2001/REC-SVG-20010904/DTD/svg10.dtd">
<svg version="1.0" xmlns="http://www.w3.org/2000/svg"
 width="182.000000pt" height="180.000000pt" viewBox="0 0 182.000000 180.000000"
 preserveAspectRatio="xMidYMid meet">
<metadata>
Created by potrace 1.10, written by Peter Selinger 2001-2011
</metadata>
<g transform="translate(0.000000,180.000000) scale(0.100000,-0.100000)"
fill="#000000" stroke="none">
<path d="M744 1775 c-15 -23 -15 -27 0 -50 19 -29 56 -33 80 -9 21 21 20 47
-2 67 -27 24 -59 21 -78 -8z"/>
<path d="M967 1732 c-24 -27 -21 -59 8 -78 23 -15 27 -15 50 0 30 20 33 56 7
79 -24 22 -45 21 -65 -1z"/>
<path d="M640 1617 c-33 -17 -53 -60 -45 -97 8 -35 48 -70 81 -70 l24 0 0
-201 0 -201 -139 -272 c-76 -149 -161 -314 -190 -367 -36 -69 -51 -107 -51
-135 0 -47 34 -107 76 -134 28 -19 51 -20 524 -20 474 0 496 1 527 20 18 10
41 37 53 59 39 77 34 91 -127 360 -80 135 -177 298 -215 361 l-68 116 0 206 0
206 34 6 c46 9 71 39 71 87 0 27 -7 46 -23 61 -22 22 -28 23 -265 26 -182 2
-248 -1 -267 -11z m485 -77 c0 -11 -14 -16 -52 -18 l-53 -3 0 -240 0 -239 207
-358 c113 -196 211 -369 216 -383 8 -19 7 -35 -3 -58 -25 -61 -19 -60 -534
-54 l-467 6 -24 29 c-14 16 -25 39 -25 51 0 19 55 131 286 585 l94 184 0 239
0 239 -49 0 c-49 0 -68 10 -56 30 4 7 87 9 233 8 194 -3 227 -5 227 -18z"/>
<path d="M743 841 c-25 -16 -56 -69 -167 -288 -75 -147 -136 -275 -136 -284 0
-9 8 -23 18 -32 17 -15 63 -17 458 -17 382 0 442 2 462 16 12 8 22 22 22 30 0
12 -242 449 -289 522 -6 11 -17 9 -53 -9 -58 -28 -101 -21 -155 26 -68 58
-108 67 -160 36z"/>
</g>
</svg>
