<?xml version="1.0" standalone="no"?>
<!DOCTYPE svg PUBLIC "-//W3C//DTD SVG 20010904//EN"
 "http://www.w3.org/TR/2001/REC-SVG-20010904/DTD/svg10.dtd">
<svg version="1.0" xmlns="http://www.w3.org/2000/svg"
 width="155.000000pt" height="155.000000pt" viewBox="0 0 155.000000 155.000000"
 preserveAspectRatio="xMidYMid meet">

<g transform="translate(0.000000,155.000000) scale(0.100000,-0.100000)"
fill="#000000" stroke="none">
<path d="M737 1248 c-14 -13 -139 -212 -280 -443 -140 -231 -294 -485 -342
-564 -48 -79 -87 -154 -87 -168 0 -13 8 -33 17 -43 18 -20 35 -20 735 -20
l717 0 21 23 c12 13 22 31 22 40 0 14 -127 233 -240 412 -21 33 -133 218 -250
410 -116 193 -219 356 -228 363 -24 18 -58 15 -85 -10z m71 -325 c11 -10 75
-110 143 -223 68 -113 161 -266 206 -339 84 -137 92 -158 71 -179 -16 -16
-859 -17 -889 -2 -10 6 -19 18 -19 26 0 9 26 60 59 113 368 606 378 621 402
621 4 0 16 -8 27 -17z"/>
<path d="M792 738 c-7 -7 -12 -27 -12 -45 l0 -33 -85 0 -85 0 -30 -61 c-35
-68 -35 -92 -2 -94 47 -3 50 -22 12 -88 -87 -156 -96 -177 -80 -187 8 -5 17
-10 20 -10 3 0 32 47 64 105 33 58 63 102 67 98 11 -13 29 -110 29 -158 0 -38
3 -45 20 -45 18 0 20 7 20 68 0 37 -4 83 -10 101 -5 19 -7 37 -5 40 6 5 145
-60 145 -68 0 -3 -23 -35 -51 -71 l-50 -65 73 -2 c248 -9 366 -7 360 3 -4 6
-41 55 -82 108 l-75 96 -54 0 c-45 0 -60 -5 -81 -25 -24 -23 -30 -24 -52 -14
-23 10 -26 18 -32 92 -9 118 -8 169 4 162 16 -10 61 41 53 62 -15 43 -54 58
-81 31z m-112 -133 c0 -15 -46 -95 -54 -95 -33 1 -38 17 -17 59 16 31 27 41
46 41 14 0 25 -2 25 -5z m100 -120 c0 -58 -5 -63 -35 -41 -19 13 -19 15 -1 55
11 22 23 41 28 41 4 0 8 -25 8 -55z"/>
</g>
</svg>
