<?xml version="1.0" standalone="no"?>
<!DOCTYPE svg PUBLIC "-//W3C//DTD SVG 20010904//EN"
 "http://www.w3.org/TR/2001/REC-SVG-20010904/DTD/svg10.dtd">
<svg version="1.0" xmlns="http://www.w3.org/2000/svg"
 width="173.000000pt" height="169.000000pt" viewBox="0 0 173.000000 169.000000"
 preserveAspectRatio="xMidYMid meet">
<metadata>
Created by potrace 1.10, written by Peter Selinger 2001-2011
</metadata>
<g transform="translate(0.000000,169.000000) scale(0.100000,-0.100000)"
fill="#000000" stroke="none">
<path d="M614 1615 c18 -27 14 -45 -8 -45 -21 0 -136 -56 -196 -94 -80 -52
-185 -160 -236 -242 -25 -40 -59 -112 -77 -160 -31 -86 -32 -94 -32 -249 0
-151 2 -165 29 -240 103 -289 347 -487 650 -527 93 -13 116 -8 116 22 0 25
-35 40 -96 40 -60 0 -215 51 -294 97 -80 47 -203 169 -249 247 -19 32 -48 94
-65 139 -28 76 -30 92 -31 217 0 151 14 211 84 345 70 135 229 275 374 329 55
21 65 17 49 -19 -10 -21 2 -15 58 31 39 31 70 58 70 59 0 4 -149 75 -157 75
-3 0 2 -11 11 -25z"/>
<path d="M879 1598 c-15 -28 6 -48 50 -48 20 0 74 -9 121 -20 250 -60 448
-240 531 -485 21 -61 24 -88 23 -210 0 -130 -2 -146 -30 -222 -43 -116 -88
-187 -174 -273 -75 -75 -183 -147 -265 -176 -54 -19 -55 -18 -45 16 6 23 6 29
-3 23 -21 -12 -117 -98 -117 -104 0 -6 143 -69 157 -69 3 0 -4 11 -17 25 -22
23 -22 25 -4 31 132 46 226 101 319 186 109 99 202 260 232 401 20 94 19 243
-1 337 -21 94 -90 238 -150 310 -135 162 -353 276 -564 293 -45 3 -54 1 -63
-15z"/>
<path d="M828 1303 c-16 -4 -23 -22 -19 -47 1 -5 -1 -27 -4 -48 -5 -29 -11
-38 -26 -38 -30 0 -110 -44 -142 -78 -74 -77 -47 -211 51 -261 20 -10 84 -28
141 -39 137 -27 186 -62 166 -118 -15 -41 -53 -63 -128 -76 -57 -9 -81 -8
-149 6 -91 20 -98 17 -89 -42 8 -44 40 -63 118 -70 l52 -4 3 -62 c3 -59 4 -61
32 -64 15 -2 39 -1 52 2 22 6 24 11 24 71 l0 64 42 12 c54 14 116 45 146 73
57 51 78 146 47 205 -33 65 -75 85 -260 126 -124 28 -168 85 -105 139 46 38
132 45 260 20 l33 -7 -6 43 c-3 23 -11 48 -19 55 -12 12 -65 24 -110 25 -14 0
-18 11 -20 58 l-3 57 -35 2 c-19 0 -43 -1 -52 -4z"/>
</g>
</svg>
