<?xml version="1.0" encoding="utf-8"?>
<svg viewBox="3.641 2.284 40.109 41.261" xmlns="http://www.w3.org/2000/svg">
  <path d="M 39.981 5.456 L 6.894 5.456 L 9.813 36.889 L 23.438 40.588 L 37.062 36.889 L 39.981 5.456 Z" style="fill: rgb(230, 188, 0);"/>
  <path d="M 23.541 8.229 L 23.541 37.721 L 34.44 34.763 L 36.873 8.229 L 23.541 8.229 Z" style="fill: rgb(255, 234, 0);"/>
  <path d="M 23.342 34.067 L 14.384 31.749 L 14.074 28.097 L 19.341 29.177 L 19.232 16.782 L 13.275 16.724 L 13.005 12.958 L 20.057 12.959 L 20.058 12.97 L 23.336 12.97 L 23.342 34.067 Z" style="stroke: rgb(0, 0, 0); stroke-width: 0px; fill: rgb(255, 255, 255);"/>
  <path d="M 23.549 12.962 L 33.754 12.948 L 33.525 16.802 L 27.609 16.869 L 27.574 20.554 L 33.335 20.502 L 32.736 31.607 L 23.53 34.007 L 23.53 29.968 L 29.303 28.586 L 29.631 24.27 L 23.538 24.371 L 23.549 12.962 Z" style="stroke: rgb(0, 0, 0); stroke-width: 0px; fill: rgb(255, 255, 255);"/>
</svg>