<?xml version="1.0" encoding="utf-8"?>
<svg viewBox="3.641 2.284 40.109 41.261" xmlns="http://www.w3.org/2000/svg">
  <path d="M 39.981 5.456 L 6.894 5.456 L 9.813 36.889 L 23.438 40.588 L 37.062 36.889 L 39.981 5.456 Z" style="fill: rgb(230, 188, 0);"/>
  <path d="M 23.541 8.229 L 23.541 37.721 L 34.44 34.763 L 36.873 8.229 L 23.541 8.229 Z" style="fill: rgb(255, 234, 0);"/>
  <path d="M 23.342 32.488 L 14.384 30.344 L 14.074 26.965 L 19.341 27.964 L 19.232 16.495 L 13.275 16.442 L 13.005 12.957 L 20.057 12.958 L 20.058 12.968 L 23.336 12.968 L 23.342 32.488 Z" style="stroke: rgb(0, 0, 0); stroke-width: 0px; fill: rgb(255, 255, 255);"/>
  <path d="M 23.549 12.961 L 33.754 12.948 L 33.525 16.514 L 27.609 16.576 L 27.574 19.985 L 33.335 19.937 L 32.736 30.212 L 23.53 32.433 L 23.53 28.696 L 29.303 27.417 L 29.631 23.424 L 23.538 23.517 L 23.549 12.961 Z" style="stroke: rgb(0, 0, 0); stroke-width: 0px; fill: rgb(255, 255, 255);"/>
</svg>