<?xml version="1.0" encoding="UTF-8"?>
<svg xmlns="http://www.w3.org/2000/svg" xmlns:xlink="http://www.w3.org/1999/xlink" viewBox="0 0 50 50" width="50px" height="50px">
<g id="surface77694683">
<path style="fill-rule:nonzero;fill:rgb(20.392157%,28.627452%,36.862746%);fill-opacity:1;stroke-width:10;stroke-linecap:butt;stroke-linejoin:miter;stroke:rgb(15.686275%,41.176471%,69.803923%);stroke-opacity:1;stroke-miterlimit:10;" d="M 105.750993 11.446759 C 106.789022 12.584325 106.931218 14.290675 106.120702 15.584656 C 99.992064 25.353505 104.087302 42.274802 114.56713 50.4084 C 116.344578 51.773479 118.306879 53.010582 120.382937 54.048612 C 121.435186 54.560516 122.558533 55.029762 123.696099 55.42791 C 124.549273 55.754961 125.516205 56.082011 126.412038 56.309524 C 138.328043 59.252977 146.930887 57.020503 151.950398 49.612104 L 151.964618 49.612104 C 153.045305 48.033731 155.178242 47.635582 156.728176 48.702051 C 158.306549 49.768519 158.704697 51.915675 157.652448 53.479828 C 157.638229 53.494048 157.638229 53.494048 157.638229 53.508268 C 157.467594 53.721561 157.296959 54.077051 157.055226 54.503638 C 154.623678 58.940146 147.314816 72.23545 128.459657 72.23545 C 128.03307 72.23545 127.606482 72.221231 127.165676 72.221231 C 124.67725 72.150133 122.018189 71.837302 119.28803 71.282739 C 118.747686 71.183202 118.193123 70.998347 117.652779 70.827712 L 117.28307 70.699736 C 117.197752 70.685516 116.685847 70.514881 116.643189 70.486442 C 116.031747 70.273149 115.690477 70.159392 115.349207 70.031416 C 104.983136 66.135252 96.280755 57.80258 92.08598 47.749339 C 90.280093 43.398148 89.398479 38.904762 89.441138 34.354498 C 89.512236 28.296958 91.275464 22.481151 94.602845 17.504299 C 94.631284 17.46164 94.673942 17.404762 94.702382 17.347884 C 95.356482 16.494709 98.712302 12.129299 101.669974 10.664683 C 102.011244 10.508267 102.380953 10.394511 102.736443 10.351852 C 103.84557 10.195437 104.968916 10.593585 105.750993 11.446759 Z M 74.453704 18.016204 C 75.733466 19.096892 76.046297 20.916997 75.207342 22.353175 C 68.780093 33.458664 66.661376 45.644842 69.519511 54.958664 C 72.605159 65.111442 79.160384 74.567461 88.0334 81.64881 L 88.403109 81.961641 C 89.355821 82.701059 90.180556 83.32672 91.005292 83.923942 C 91.38922 84.165675 91.773149 84.407408 92.185517 84.66336 C 92.213956 84.6918 92.469908 84.890874 92.498347 84.905093 L 92.825398 85.104167 C 93.280424 85.416998 93.778109 85.729829 94.275794 86.02844 L 94.617064 86.227514 L 94.944114 86.412368 C 95.555556 86.782077 95.939485 87.02381 96.380292 87.237104 L 98.342593 88.260913 C 99.067792 88.602183 99.849868 89.000331 100.674604 89.341601 L 101.115411 89.540675 C 101.783731 89.839286 102.338294 90.05258 102.892858 90.280093 L 103.84557 90.635583 C 104.51389 90.891535 105.111112 91.090609 105.708334 91.275464 C 105.992726 91.38922 106.149141 91.446099 106.319776 91.502977 C 107.357805 91.830027 108.18254 92.07176 109.049935 92.285054 C 127.578043 97.176588 145.764882 91.247024 155.391536 77.183863 C 156.344247 75.790344 158.178573 75.27844 159.700067 76.003638 C 161.235782 76.728837 162.003639 78.463625 161.534393 80.084657 C 161.434856 80.411707 151.566469 112.675927 113.58598 113.500662 C 113.088294 113.500662 112.57639 113.514882 112.064485 113.514882 C 107.755953 113.514882 103.205689 113.116734 98.513228 112.334657 C 97.560517 112.178242 96.678903 111.87963 95.925265 111.623678 L 94.43221 111.125993 C 93.76389 110.912699 93.109789 110.685186 92.469908 110.457673 C 92.441469 110.443453 92.100199 110.315477 92.07176 110.301257 L 91.673612 110.144842 C 90.777778 109.817792 90.05258 109.519181 89.341601 109.20635 L 88.260913 108.722884 C 87.549935 108.395834 86.838956 108.068784 86.142196 107.713294 C 86.099538 107.684855 85.857805 107.585318 85.800927 107.556879 L 84.748678 107.002316 C 84.279432 106.746363 84.080358 106.646826 83.895503 106.53307 C 83.454696 106.319776 82.800596 105.935847 82.189154 105.566138 C 81.236442 105.011575 80.553903 104.599207 79.871363 104.144181 L 79.501654 103.902448 L 79.174604 103.689154 C 78.847553 103.461641 78.534723 103.248347 78.207673 103.035054 C 78.108135 102.978175 78.022818 102.907077 77.923281 102.83598 C 76.999008 102.181879 76.103175 101.513559 75.207342 100.788361 L 74.894511 100.560847 C 73.756945 99.665014 72.90377 98.954035 72.050596 98.200398 C 71.979498 98.1293 71.9084 98.086641 71.851522 98.001323 L 71.837302 98.001323 C 71.083665 97.333003 70.358466 96.622025 69.647487 95.939485 L 69.021826 95.313823 C 68.325067 94.617064 67.614088 93.891866 66.959987 93.138228 C 65.054564 91.417659 63.561508 89.213625 62.224868 87.265543 L 61.755622 86.597223 C 60.191469 84.307871 58.712633 81.819445 57.404432 79.217262 C 49.085979 62.750993 49.796958 43.270172 59.210318 29.57672 C 59.252977 29.519841 59.267196 29.477183 59.295635 29.434524 C 59.523149 29.150132 64.85549 22.210979 70.045635 17.973545 C 70.699736 17.447421 71.481813 17.191468 72.263889 17.205688 C 73.045966 17.205688 73.828043 17.47586 74.453704 18.016204 Z M 36.714947 28.410714 C 38.023148 29.605159 38.222222 31.5959 37.169974 33.003638 C 26.747024 47.095238 30.23082 85.587633 43.611442 104.016204 C 44.109127 104.712964 44.606812 105.381284 45.104498 106.049604 C 45.332011 106.319776 45.531085 106.575728 45.70172 106.831681 L 47.152117 108.594908 C 47.948413 109.54762 48.531416 110.23016 49.157077 110.912699 C 49.825397 111.652117 50.422619 112.263559 51.005622 112.875001 L 53.43717 115.292329 C 54.276125 116.088625 54.972884 116.714287 55.655424 117.354168 C 55.754961 117.411046 55.826059 117.467924 55.897156 117.553242 C 56.522818 118.079366 57.105821 118.61971 57.745701 119.117395 L 58.499339 119.743056 C 58.897487 120.070107 59.324075 120.382937 59.750662 120.724207 C 60.234127 121.079697 60.532739 121.321429 60.83135 121.548943 C 61.300596 121.890213 61.869379 122.3168 62.438162 122.729168 L 62.779432 122.9709 C 63.632606 123.553903 64.201389 123.952051 64.798612 124.32176 C 65.125662 124.549273 65.310516 124.691469 65.50959 124.805226 C 66.362765 125.359789 67.244379 125.885914 68.083334 126.412038 C 68.367725 126.554234 68.666336 126.724869 68.950728 126.923943 L 71.751985 128.416998 C 72.377646 128.758268 72.861112 129.014221 73.344577 129.255953 C 73.401456 129.270173 73.941799 129.540345 73.998678 129.568784 C 74.695437 129.910054 75.392196 130.237104 76.117395 130.578374 L 76.60086 130.777448 C 77.397157 131.132937 78.236112 131.488427 79.060847 131.815477 L 79.814485 132.114088 C 80.482805 132.370041 81.236442 132.668652 81.97586 132.924604 C 81.97586 132.924604 82.374009 133.0668 82.388228 133.0668 C 83.227183 133.365411 84.108797 133.664022 84.976191 133.934194 L 86.270173 134.318123 C 86.924273 134.517197 87.592593 134.716271 88.260913 134.872686 C 115.562501 141.14352 139.408731 134.972223 152.064155 118.321099 C 153.102184 116.956019 154.993387 116.572091 156.472223 117.396826 C 157.965279 118.221562 158.633599 120.027448 158.022157 121.620041 C 157.865742 122.032408 142.167329 161.676589 92.896495 161.676589 L 92.882276 161.676589 C 86.966932 161.676589 80.724538 161.079366 74.325728 159.913361 C 73.415675 159.728506 72.59094 159.458335 71.751985 159.202382 L 71.069445 158.989088 C 71.041006 158.989088 70.827712 158.93221 70.628638 158.861112 C 69.419974 158.477184 68.481482 158.178573 67.52877 157.851522 C 67.457672 157.823083 67.087963 157.680887 67.031085 157.652448 C 66.320106 157.396496 65.438493 157.069446 64.613757 156.742395 C 64.571098 156.728176 64.372024 156.671297 64.18717 156.58598 C 63.021164 156.116734 62.139551 155.747025 61.215278 155.348877 C 61.215278 155.348877 60.902448 155.206681 60.902448 155.192461 C 59.907077 154.751655 59.110781 154.381946 58.328704 153.998017 C 58.271826 153.969578 57.717262 153.699406 57.646164 153.656747 C 56.864088 153.287038 56.352183 153.002647 55.882937 152.746694 C 55.555887 152.576059 55.157738 152.376985 54.77381 152.163692 C 54.119709 151.822422 53.408731 151.410054 52.726191 151.011906 L 52.143188 150.670636 C 51.034061 150.016536 50.138228 149.461972 49.228175 148.878969 L 46.768188 147.215279 C 46.69709 147.18684 46.583334 147.101522 46.498016 147.016205 C 46.270503 146.874009 46.04299 146.717594 45.815477 146.546959 C 45.175596 146.077713 44.606812 145.679565 44.066469 145.267197 L 40.767527 142.665014 C 40.127646 142.13889 39.487765 141.598546 38.862103 141.043983 C 38.819445 141.015543 38.335979 140.603176 38.30754 140.560517 C 37.795635 140.11971 37.127315 139.508268 36.487434 138.896826 L 35.94709 138.399141 C 35.94709 138.399141 35.691138 138.157408 35.691138 138.143189 C 35.150794 137.645504 34.638889 137.119379 34.126984 136.579035 L 33.515543 135.981813 C 32.861442 135.299273 32.25 134.645173 31.638558 133.991072 C 31.553241 133.877316 31.453704 133.777779 31.368386 133.678242 C 30.728506 132.981482 30.102844 132.256284 29.505622 131.531086 L 29.22123 131.204035 C 29.207011 131.175596 28.993717 130.919644 28.965278 130.891205 L 27.002976 128.402779 C 26.562169 127.862435 26.064484 127.179895 25.581019 126.483136 L 25.367725 126.184525 C 25.339286 126.170305 25.310847 126.141866 25.282408 126.099207 C 24.699405 125.302911 24.159061 124.478176 23.618717 123.63922 C 23.51918 123.497025 23.348545 123.269511 23.19213 123.013559 L 22.651786 122.160385 C 22.424273 121.790676 22.196759 121.435186 21.983466 121.079697 C 21.926587 120.994379 21.770172 120.724207 21.613757 120.468255 L 20.50463 118.577051 C 20.206019 118.065146 20.049603 117.766535 19.893188 117.425265 C 19.82209 117.354168 19.665675 117.069776 19.551918 116.813824 C 19.48082 116.728506 19.281746 116.330358 19.111111 115.93221 L 18.968915 115.718916 C 18.769841 115.334988 18.570767 114.951059 18.385913 114.538691 C 8.73082 95.10053 6.014881 63.291336 20.078042 42.829365 C 20.618386 41.947752 25.53836 34.311839 32.107804 28.410714 C 32.761905 27.813492 33.60086 27.514881 34.411376 27.514881 C 35.236111 27.514881 36.060847 27.813492 36.714947 28.410714 Z M 36.714947 28.410714 " transform="matrix(0.274709,0,0,0.274709,1.375,1.375)"/>
<path style=" stroke:none;fill-rule:nonzero;fill:rgb(90%,90%,90%);fill-opacity:1;" d="M 29.597656 4.21875 C 29.5 4.230469 29.398438 4.261719 29.304688 4.304688 C 28.492188 4.707031 27.570312 5.90625 27.390625 6.140625 C 27.382812 6.15625 27.371094 6.171875 27.363281 6.183594 C 26.449219 7.550781 25.964844 9.148438 25.945312 10.8125 C 25.933594 12.0625 26.175781 13.296875 26.671875 14.492188 C 27.824219 17.253906 30.214844 19.542969 33.0625 20.613281 C 33.15625 20.648438 33.25 20.679688 33.417969 20.738281 C 33.429688 20.746094 33.570312 20.792969 33.59375 20.796875 L 33.695312 20.832031 C 33.84375 20.878906 33.996094 20.929688 34.144531 20.957031 C 34.894531 21.109375 35.625 21.195312 36.308594 21.214844 C 36.429688 21.214844 36.546875 21.21875 36.664062 21.21875 C 41.84375 21.21875 43.851562 17.566406 44.519531 16.347656 C 44.585938 16.230469 44.632812 16.132812 44.679688 16.074219 C 44.679688 16.070312 44.679688 16.070312 44.683594 16.066406 C 44.972656 15.636719 44.863281 15.046875 44.429688 14.753906 C 44.003906 14.460938 43.417969 14.570312 43.121094 15.003906 L 43.117188 15.003906 C 41.738281 17.039062 39.375 17.652344 36.101562 16.84375 C 35.855469 16.78125 35.589844 16.691406 35.355469 16.601562 C 35.042969 16.492188 34.734375 16.363281 34.445312 16.222656 C 33.875 15.9375 33.335938 15.597656 32.847656 15.222656 C 29.96875 12.988281 28.84375 8.339844 30.527344 5.65625 C 30.75 5.300781 30.710938 4.832031 30.425781 4.519531 C 30.210938 4.285156 29.902344 4.175781 29.597656 4.21875 Z M 21.226562 6.101562 C 21.011719 6.097656 20.796875 6.167969 20.617188 6.3125 C 19.191406 7.476562 17.726562 9.382812 17.664062 9.460938 C 17.65625 9.472656 17.652344 9.484375 17.640625 9.5 C 15.054688 13.261719 14.859375 18.613281 17.144531 23.136719 C 17.503906 23.851562 17.910156 24.535156 18.339844 25.164062 L 18.46875 25.347656 C 18.835938 25.882812 19.246094 26.488281 19.769531 26.960938 C 19.949219 27.167969 20.144531 27.367188 20.335938 27.558594 L 20.507812 27.730469 C 20.703125 27.917969 20.902344 28.113281 21.109375 28.296875 L 21.113281 28.296875 C 21.128906 28.320312 21.148438 28.332031 21.167969 28.351562 C 21.402344 28.558594 21.636719 28.753906 21.949219 29 L 22.035156 29.0625 C 22.28125 29.261719 22.527344 29.445312 22.78125 29.625 C 22.808594 29.644531 22.832031 29.664062 22.859375 29.679688 C 22.949219 29.738281 23.035156 29.796875 23.125 29.859375 L 23.214844 29.917969 L 23.316406 29.984375 C 23.503906 30.109375 23.691406 30.222656 23.953125 30.375 C 24.121094 30.476562 24.300781 30.582031 24.421875 30.640625 C 24.472656 30.671875 24.527344 30.699219 24.65625 30.769531 L 24.945312 30.921875 C 24.960938 30.929688 25.027344 30.957031 25.039062 30.964844 C 25.230469 31.0625 25.425781 31.152344 25.621094 31.242188 L 25.917969 31.375 C 26.113281 31.460938 26.3125 31.542969 26.558594 31.632812 L 26.667969 31.675781 C 26.675781 31.679688 26.769531 31.714844 26.777344 31.71875 C 26.953125 31.78125 27.132812 31.84375 27.316406 31.902344 L 27.726562 32.039062 C 27.933594 32.109375 28.175781 32.191406 28.4375 32.234375 C 29.726562 32.449219 30.976562 32.558594 32.160156 32.558594 C 32.300781 32.558594 32.441406 32.554688 32.578125 32.554688 C 43.011719 32.328125 45.722656 23.464844 45.75 23.375 C 45.878906 22.929688 45.667969 22.453125 45.246094 22.253906 C 44.828125 22.054688 44.324219 22.195312 44.0625 22.578125 C 41.417969 26.441406 36.421875 28.070312 31.332031 26.726562 C 31.09375 26.667969 30.867188 26.601562 30.582031 26.511719 C 30.535156 26.496094 30.492188 26.480469 30.414062 26.449219 C 30.25 26.398438 30.085938 26.34375 29.902344 26.273438 L 29.640625 26.175781 C 29.488281 26.113281 29.335938 26.054688 29.152344 25.972656 L 29.03125 25.917969 C 28.804688 25.824219 28.589844 25.714844 28.390625 25.621094 L 27.851562 25.339844 C 27.730469 25.28125 27.625 25.214844 27.457031 25.113281 L 27.367188 25.0625 L 27.273438 25.007812 C 27.136719 24.925781 27 24.839844 26.875 24.753906 L 26.785156 24.699219 C 26.777344 24.695312 26.707031 24.640625 26.699219 24.632812 C 26.585938 24.5625 26.480469 24.496094 26.375 24.429688 C 26.148438 24.265625 25.921875 24.09375 25.660156 23.890625 L 25.558594 23.804688 C 23.121094 21.859375 21.320312 19.261719 20.472656 16.472656 C 19.6875 13.914062 20.269531 10.566406 22.035156 7.515625 C 22.265625 7.121094 22.179688 6.621094 21.828125 6.324219 C 21.65625 6.175781 21.441406 6.101562 21.226562 6.101562 Z M 10.828125 8.933594 C 10.601562 8.933594 10.375 9.015625 10.195312 9.179688 C 8.386719 10.800781 7.039062 12.898438 6.890625 13.140625 C 3.027344 18.761719 3.773438 27.5 6.425781 32.839844 C 6.476562 32.953125 6.53125 33.058594 6.585938 33.164062 L 6.625 33.222656 C 6.671875 33.332031 6.726562 33.441406 6.746094 33.464844 C 6.777344 33.535156 6.820312 33.613281 6.839844 33.632812 C 6.882812 33.726562 6.925781 33.808594 7.007812 33.949219 L 7.3125 34.46875 C 7.355469 34.539062 7.398438 34.613281 7.414062 34.636719 C 7.472656 34.734375 7.535156 34.832031 7.597656 34.933594 L 7.746094 35.167969 C 7.789062 35.238281 7.835938 35.300781 7.863281 35.339844 C 8.011719 35.570312 8.160156 35.796875 8.320312 36.015625 C 8.328125 36.027344 8.335938 36.035156 8.34375 36.039062 L 8.402344 36.121094 C 8.535156 36.3125 8.671875 36.5 8.792969 36.648438 L 9.332031 37.332031 C 9.339844 37.339844 9.398438 37.410156 9.402344 37.417969 L 9.480469 37.507812 C 9.644531 37.707031 9.816406 37.90625 9.992188 38.097656 C 10.015625 38.125 10.042969 38.152344 10.066406 38.183594 C 10.234375 38.363281 10.402344 38.542969 10.582031 38.730469 L 10.75 38.894531 C 10.890625 39.042969 11.03125 39.1875 11.179688 39.324219 C 11.179688 39.328125 11.25 39.394531 11.25 39.394531 L 11.398438 39.53125 C 11.574219 39.699219 11.757812 39.867188 11.898438 39.988281 C 11.90625 40 12.039062 40.113281 12.050781 40.121094 C 12.222656 40.273438 12.398438 40.421875 12.574219 40.566406 L 13.480469 41.28125 C 13.628906 41.394531 13.785156 41.503906 13.960938 41.632812 C 14.023438 41.679688 14.085938 41.722656 14.148438 41.761719 C 14.171875 41.785156 14.203125 41.808594 14.222656 41.816406 L 14.898438 42.273438 C 15.148438 42.433594 15.394531 42.585938 15.699219 42.765625 L 15.859375 42.859375 C 16.046875 42.96875 16.242188 43.082031 16.421875 43.175781 C 16.527344 43.234375 16.636719 43.289062 16.726562 43.335938 C 16.855469 43.40625 16.996094 43.484375 17.210938 43.585938 C 17.230469 43.597656 17.382812 43.671875 17.398438 43.679688 C 17.613281 43.785156 17.832031 43.886719 18.105469 44.007812 C 18.105469 44.011719 18.191406 44.050781 18.191406 44.050781 C 18.445312 44.160156 18.6875 44.261719 19.007812 44.390625 C 19.058594 44.414062 19.113281 44.429688 19.125 44.433594 C 19.351562 44.523438 19.59375 44.613281 19.789062 44.683594 C 19.804688 44.691406 19.90625 44.730469 19.925781 44.738281 C 20.1875 44.828125 20.445312 44.910156 20.777344 45.015625 C 20.832031 45.035156 20.890625 45.050781 20.898438 45.050781 L 21.085938 45.109375 C 21.316406 45.179688 21.542969 45.253906 21.792969 45.300781 C 23.550781 45.625 25.265625 45.789062 26.890625 45.789062 L 26.894531 45.789062 C 40.429688 45.789062 44.742188 34.898438 44.785156 34.785156 C 44.953125 34.347656 44.769531 33.851562 44.359375 33.625 C 43.953125 33.398438 43.433594 33.503906 43.148438 33.878906 C 39.671875 38.453125 33.121094 40.148438 25.621094 38.425781 C 25.4375 38.382812 25.253906 38.328125 25.074219 38.273438 L 24.71875 38.167969 C 24.480469 38.09375 24.238281 38.011719 24.007812 37.929688 C 24.003906 37.929688 23.894531 37.890625 23.894531 37.890625 C 23.691406 37.820312 23.484375 37.738281 23.300781 37.667969 L 23.09375 37.585938 C 22.867188 37.496094 22.636719 37.398438 22.414062 37.300781 L 22.285156 37.246094 C 22.085938 37.152344 21.894531 37.0625 21.703125 36.96875 C 21.6875 36.960938 21.539062 36.886719 21.523438 36.882812 C 21.390625 36.816406 21.257812 36.746094 21.085938 36.652344 L 20.316406 36.242188 C 20.238281 36.1875 20.15625 36.140625 20.078125 36.101562 C 19.847656 35.957031 19.605469 35.8125 19.371094 35.660156 C 19.316406 35.628906 19.265625 35.589844 19.175781 35.527344 C 19.011719 35.425781 18.855469 35.316406 18.621094 35.15625 L 18.527344 35.089844 C 18.371094 34.976562 18.214844 34.859375 18.085938 34.765625 C 18.003906 34.703125 17.921875 34.636719 17.789062 34.539062 C 17.671875 34.445312 17.554688 34.359375 17.445312 34.269531 L 17.238281 34.097656 C 17.0625 33.960938 16.902344 33.8125 16.730469 33.667969 C 16.710938 33.644531 16.691406 33.628906 16.664062 33.613281 C 16.476562 33.4375 16.285156 33.265625 16.054688 33.046875 L 15.386719 32.382812 C 15.226562 32.214844 15.0625 32.046875 14.878906 31.84375 C 14.707031 31.65625 14.546875 31.46875 14.328125 31.207031 L 13.929688 30.722656 C 13.882812 30.652344 13.828125 30.582031 13.765625 30.507812 C 13.628906 30.324219 13.492188 30.140625 13.355469 29.949219 C 9.679688 24.886719 8.722656 14.3125 11.585938 10.441406 C 11.875 10.054688 11.820312 9.507812 11.460938 9.179688 C 11.28125 9.015625 11.054688 8.933594 10.828125 8.933594 Z M 10.828125 8.933594 "/>
</g>
</svg>
