<?xml version="1.0" standalone="no"?>
<!DOCTYPE svg PUBLIC "-//W3C//DTD SVG 20010904//EN"
 "http://www.w3.org/TR/2001/REC-SVG-20010904/DTD/svg10.dtd">
<svg version="1.0" xmlns="http://www.w3.org/2000/svg"
 width="314.000000pt" height="314.000000pt" viewBox="0 0 314.000000 314.000000"
 preserveAspectRatio="xMidYMid meet">

<g transform="translate(0.000000,314.000000) scale(0.100000,-0.100000)"
fill="#000000" stroke="none">
<path d="M1296 3121 c-3 -4 -40 -11 -82 -15 -42 -3 -82 -10 -88 -15 -6 -5 -24
-11 -41 -13 -70 -12 -206 -53 -287 -88 -125 -54 -226 -120 -324 -213 -96 -91
-155 -169 -208 -273 -46 -92 -106 -276 -106 -325 0 -21 -4 -41 -10 -44 -13 -8
-13 -229 -1 -253 5 -9 15 -55 22 -102 6 -47 16 -92 20 -100 5 -8 23 -60 40
-115 38 -121 64 -173 139 -285 162 -238 191 -301 198 -416 7 -132 -40 -499
-96 -744 -11 -47 -17 -88 -13 -93 4 -4 342 -6 751 -5 l745 3 7 25 c4 14 19 81
33 150 15 69 36 143 48 165 l22 40 235 8 c129 4 249 10 266 12 77 13 184 125
184 193 0 15 -14 67 -30 117 -17 49 -30 102 -30 116 0 14 15 45 33 69 17 24
38 51 46 61 12 17 10 23 -18 54 -17 20 -31 40 -31 46 0 5 16 23 35 40 43 38
43 55 5 115 -16 26 -32 67 -36 92 -6 40 -4 48 16 64 12 10 33 18 47 18 58 0
173 79 173 119 0 43 -91 183 -220 336 -37 44 -90 111 -119 149 -49 65 -53 73
-47 110 4 23 9 59 12 81 9 59 -38 242 -86 338 -45 90 -147 225 -217 287 -120
107 -290 196 -460 241 -136 36 -147 39 -185 39 -20 0 -40 5 -43 10 -8 12 -292
14 -299 1z m392 -145 c26 -7 85 -24 132 -36 47 -13 94 -29 105 -37 11 -7 27
-13 36 -13 9 0 37 -16 63 -36 26 -20 59 -42 72 -49 40 -20 154 -125 154 -140
0 -8 9 -19 20 -25 11 -6 20 -16 20 -21 0 -6 11 -24 25 -41 14 -16 25 -35 25
-42 0 -6 8 -23 18 -36 22 -33 37 -74 67 -190 26 -100 30 -142 16 -202 -9 -39
10 -95 36 -105 7 -3 13 -12 13 -19 0 -8 7 -17 15 -20 8 -4 15 -11 15 -16 0 -5
26 -42 58 -81 70 -87 143 -190 166 -234 16 -32 21 -90 10 -130 -6 -22 -85 -63
-122 -63 -11 0 -31 -9 -45 -20 -22 -17 -25 -26 -20 -53 3 -18 16 -51 29 -75
32 -58 32 -105 -1 -126 -30 -20 -32 -37 -4 -62 27 -24 20 -72 -15 -107 -38
-38 -41 -69 -17 -152 49 -169 8 -269 -124 -304 -22 -6 -123 -10 -224 -11 -172
0 -186 -1 -206 -20 -34 -32 -53 -84 -79 -210 l-23 -115 -662 -3 c-628 -2 -662
-1 -657 15 3 10 19 93 36 185 34 185 48 305 56 483 7 140 -3 177 -86 316 -28
45 -50 85 -50 88 0 3 -11 16 -23 28 -53 49 -141 275 -176 451 -6 29 -11 137
-11 240 0 166 3 196 24 272 34 121 56 178 101 255 38 64 156 206 179 214 6 2
16 10 23 19 24 29 158 105 288 163 28 13 220 59 244 59 11 0 23 5 26 10 10 16
416 13 473 -4z"/>
<path d="M1636 2575 c-20 -30 -30 -31 -56 -5 -25 25 -35 20 -44 -21 -6 -32 -8
-33 -66 -18 -11 3 -16 -6 -18 -33 -3 -33 -6 -37 -35 -40 -30 -3 -32 -5 -30
-41 2 -32 -1 -39 -21 -47 -34 -12 -41 -28 -22 -49 22 -24 20 -32 -11 -58 l-28
-22 29 -24 c20 -17 27 -29 23 -41 -6 -16 -9 -16 -33 3 -15 12 -37 21 -51 21
-32 0 -38 22 -19 70 18 46 12 53 -47 48 l-42 -3 -3 50 c-2 27 -8 53 -14 56 -6
4 -26 0 -45 -8 -41 -17 -45 -14 -58 40 -5 22 -15 42 -21 44 -6 2 -28 -10 -49
-27 l-39 -31 -24 40 c-13 23 -30 41 -38 41 -7 0 -23 -18 -34 -40 -11 -22 -24
-40 -28 -40 -4 0 -24 13 -44 30 -40 33 -53 28 -64 -29 -9 -41 -16 -45 -58 -25
-47 23 -67 8 -64 -50 l3 -41 -45 -5 c-49 -5 -49 -5 -38 -89 3 -21 -2 -26 -35
-34 -49 -12 -55 -29 -23 -68 14 -17 26 -35 26 -40 0 -5 -16 -19 -35 -30 -19
-12 -35 -29 -35 -39 0 -10 16 -27 35 -39 42 -24 43 -36 9 -72 -31 -33 -27 -56
13 -65 53 -11 56 -13 48 -37 -4 -12 -8 -35 -9 -52 -1 -29 1 -30 47 -33 l48 -3
-3 -47 c-3 -39 0 -47 16 -50 10 -2 29 2 42 8 31 17 50 7 58 -31 11 -58 23 -62
68 -27 42 35 41 35 74 -25 18 -34 32 -31 62 14 13 19 27 35 31 37 5 2 23 -9
40 -24 40 -33 59 -26 67 27 6 38 9 40 33 34 14 -3 37 -7 51 -8 23 -2 25 2 28
46 l3 47 48 0 c26 0 50 3 54 6 3 3 -1 24 -9 47 -19 52 -14 63 31 71 48 9 53
29 20 72 l-28 36 43 37 43 37 -36 28 c-40 30 -45 47 -23 65 10 8 20 9 33 2 10
-5 26 -12 37 -15 14 -5 17 -12 11 -29 -14 -47 -11 -52 27 -55 33 -3 37 -6 40
-35 3 -30 5 -32 39 -29 33 2 38 -1 47 -28 12 -33 23 -37 42 -15 18 22 31 19
57 -12 l22 -28 25 30 c24 29 24 30 45 11 25 -22 48 -15 53 16 3 20 9 23 43 23
39 0 40 1 38 32 -3 30 -1 32 35 35 l37 3 -3 43 c-3 36 -1 42 16 42 11 0 25 7
32 15 11 13 9 20 -10 40 l-22 24 32 29 32 30 -28 18 c-16 10 -31 19 -33 20 -2
2 6 15 18 30 24 30 14 54 -21 54 -17 0 -19 6 -16 42 3 42 2 43 -32 48 -32 5
-35 7 -32 37 4 39 -12 50 -42 30 -26 -17 -46 -7 -46 24 0 26 -19 33 -39 15
-25 -23 -46 -20 -59 9 -6 14 -16 25 -21 25 -5 0 -16 -11 -25 -25z m74 -95 c45
-45 11 -120 -54 -120 -37 0 -76 36 -76 70 0 10 9 29 21 44 26 33 79 36 109 6z
m-156 -101 c30 -36 31 -40 11 -79 -14 -26 -21 -30 -60 -30 -34 0 -47 5 -59 22
-57 81 45 162 108 87z m315 5 c42 -53 13 -118 -53 -118 -42 0 -63 17 -72 59
-14 72 80 116 125 59z m-938 -4 c29 -6 57 -14 62 -19 5 -5 -11 -48 -36 -97
l-45 -89 -48 -1 -49 -2 -48 74 c-66 102 -66 99 -10 117 43 14 73 21 109 26 6
0 35 -4 65 -9z m181 -90 c37 -30 108 -156 108 -190 0 -14 -12 -18 -61 -24
-123 -12 -133 -10 -162 35 l-27 40 29 57 c15 31 31 69 35 85 8 36 32 35 78 -3z
m-396 -78 l52 -87 -19 -24 c-10 -13 -19 -29 -19 -37 0 -15 -26 -20 -133 -29
l-78 -7 7 39 c16 91 94 234 127 233 6 -1 35 -40 63 -88z m994 68 c19 -36 8
-83 -22 -100 -25 -13 -31 -13 -55 0 -66 37 -48 120 27 120 29 0 42 -5 50 -20z
m-160 -78 c29 -24 32 -88 5 -109 -56 -40 -117 -15 -123 50 -6 66 65 102 118
59z m317 -8 c20 -20 24 -31 19 -57 -3 -18 -16 -40 -27 -49 -66 -55 -153 36
-99 105 28 36 72 36 107 1z m-162 -89 c35 -34 34 -86 -2 -115 -50 -39 -117 -1
-117 66 0 68 72 97 119 49z m-784 -8 c30 -20 34 -29 37 -71 4 -56 -13 -81 -60
-91 -57 -13 -119 36 -118 92 1 42 50 92 91 93 9 0 31 -10 50 -23z m299 -131
c0 -74 -97 -242 -128 -222 -12 7 -102 155 -102 167 0 5 8 24 17 43 17 37 21
38 133 49 85 9 80 11 80 -37z m-471 -29 l29 -43 -41 -89 c-22 -50 -42 -92 -44
-94 -1 -2 -23 13 -47 33 -48 39 -105 139 -109 191 -2 30 -1 30 58 36 126 12
121 13 154 -34z m227 -130 c66 -99 67 -103 40 -120 -41 -28 -136 -40 -200 -27
-63 13 -67 21 -40 85 40 97 62 116 144 123 8 1 34 -27 56 -61z"/>
</g>
</svg>
