<!doctype html>
<svg  width="134.65" height="91.297">
  <g id="layer1" transform="matrix(2.144824, 0, 0, 2.336751, 277.693512, -2158.12793)" style="">
    <path style="font-style:normal;font-variant:normal;font-weight:normal;font-stretch:normal;font-size:medium;line-height:normal;font-family:sans-serif;text-indent:0;text-align:start;text-decoration:none;text-decoration-line:none;text-decoration-style:solid;text-decoration-color:#000000;letter-spacing:normal;word-spacing:normal;text-transform:none;direction:ltr;block-progression:tb;writing-mode:lr-tb;baseline-shift:baseline;text-anchor:start;white-space:normal;clip-rule:nonzero;display:inline;overflow:visible;visibility:visible;opacity:1;isolation:auto;mix-blend-mode:normal;color-interpolation:sRGB;color-interpolation-filters:linearRGB;solid-color:#000000;solid-opacity:1;fill:#000000;fill-opacity:1;fill-rule:nonzero;stroke:none;stroke-width:1;stroke-linecap:round;stroke-linejoin:round;stroke-miterlimit:4;stroke-dasharray:none;stroke-dashoffset:0.34999999;stroke-opacity:1;color-rendering:auto;image-rendering:auto;shape-rendering:auto;text-rendering:auto;enable-background:accumulate" d="M 44.781 1004.259 L 26.818 1004.458 C 26.407 1004.152 25.835 1004.098 25.367 1004.368 C 25.22 1004.453 25.098 1004.564 24.998 1004.69 L 17.875 1003.489 C 17.852 1003.425 17.846 1003.357 17.811 1003.296 C 17.495 1002.749 16.78 1002.556 16.232 1002.872 C 15.854 1003.091 15.662 1003.502 15.674 1003.915 L 8.156 1007.616 C 7.874 1007.389 7.52 1007.247 7.133 1007.247 C 6.229 1007.247 5.486 1007.99 5.486 1008.894 C 5.486 1009.243 5.6 1009.567 5.789 1009.835 L 1.742 1016.749 C 1.649 1016.73 1.553 1016.72 1.455 1016.72 C 0.657 1016.72 0 1017.377 0 1018.175 C 0 1018.973 0.657 1019.63 1.455 1019.63 C 1.62 1019.63 1.777 1019.596 1.926 1019.544 L 6.262 1024.825 C 6.187 1024.99 6.143 1025.17 6.143 1025.36 C 6.143 1025.705 6.284 1026.015 6.504 1026.251 L 3.25 1032.259 C 3.211 1032.256 3.173 1032.247 3.133 1032.247 C 2.229 1032.247 1.486 1032.99 1.486 1033.894 C 1.486 1034.797 2.229 1035.54 3.133 1035.54 C 3.481 1035.54 3.803 1035.428 4.07 1035.241 L 6.549 1036.714 C 6.752 1039.551 9.112 1041.79 12.002 1041.79 L 51.057 1041.79 C 53.912 1041.79 56.255 1039.605 56.506 1036.815 L 59.123 1035.319 C 59.362 1035.455 59.634 1035.54 59.926 1035.54 C 60.829 1035.54 61.572 1034.797 61.572 1033.894 C 61.572 1032.99 60.829 1032.247 59.926 1032.247 C 59.921 1032.247 59.917 1032.249 59.912 1032.249 L 57.74 1026.282 C 57.976 1026.043 58.125 1025.718 58.125 1025.36 C 58.125 1025.041 57.995 1024.756 57.803 1024.526 L 61.16 1016.935 C 62.051 1016.919 62.779 1016.184 62.779 1015.29 C 62.779 1014.433 62.108 1013.728 61.268 1013.657 L 59.451 1004.71 C 59.532 1004.552 59.59 1004.384 59.59 1004.196 C 59.59 1003.564 59.068 1003.04 58.436 1003.04 C 57.975 1003.04 57.577 1003.322 57.393 1003.718 L 46.609 1004.751 C 46.386 1004.335 45.961 1004.04 45.461 1004.04 C 45.208 1004.04 44.983 1004.132 44.781 1004.259 Z M 27.328 1005.319 L 44.176 1005.075 C 44.155 1005.167 44.143 1005.263 44.143 1005.36 C 44.143 1005.691 44.278 1005.985 44.482 1006.218 L 43.377 1009.79 L 42.98 1009.79 L 37.775 1006.86 C 37.757 1005.972 37.025 1005.247 36.133 1005.247 C 35.419 1005.247 34.812 1005.714 34.586 1006.354 L 27.324 1005.478 C 27.323 1005.424 27.336 1005.372 27.328 1005.319 Z M 16.852 1003.72 C 16.889 1003.73 16.92 1003.756 16.943 1003.796 C 16.989 1003.875 16.968 1003.961 16.889 1004.007 C 16.809 1004.053 16.722 1004.029 16.676 1003.95 C 16.63 1003.871 16.653 1003.783 16.732 1003.737 C 16.772 1003.714 16.814 1003.709 16.852 1003.72 Z M 58.436 1004.04 C 58.527 1004.04 58.59 1004.105 58.59 1004.196 C 58.59 1004.288 58.527 1004.351 58.436 1004.351 C 58.344 1004.351 58.279 1004.288 58.279 1004.196 C 58.279 1004.104 58.344 1004.04 58.436 1004.04 Z M 17.77 1004.487 L 24.721 1005.659 C 24.733 1005.775 24.764 1005.888 24.809 1005.999 L 19.373 1009.79 L 11.82 1009.79 C 11.388 1009.79 10.987 1009.917 10.641 1010.128 L 8.768 1009.007 C 8.77 1008.969 8.779 1008.932 8.779 1008.894 C 8.779 1008.741 8.752 1008.596 8.713 1008.456 L 16.133 1004.804 C 16.491 1005.06 16.986 1005.105 17.389 1004.872 C 17.554 1004.777 17.673 1004.64 17.77 1004.487 Z M 57.422 1004.718 C 57.432 1004.737 57.448 1004.752 57.459 1004.77 L 52.289 1010.058 C 51.973 1009.892 51.619 1009.79 51.238 1009.79 L 44.424 1009.79 L 45.389 1006.671 C 45.413 1006.672 45.436 1006.679 45.461 1006.679 C 46.049 1006.679 46.547 1006.281 46.715 1005.745 L 57.422 1004.718 Z M 45.461 1005.04 C 45.643 1005.04 45.779 1005.178 45.779 1005.36 C 45.779 1005.542 45.643 1005.679 45.461 1005.679 C 45.279 1005.679 45.143 1005.542 45.143 1005.36 C 45.143 1005.178 45.279 1005.04 45.461 1005.04 Z M 25.988 1005.192 C 26.112 1005.175 26.234 1005.232 26.303 1005.351 C 26.394 1005.508 26.343 1005.695 26.186 1005.786 C 26.028 1005.877 25.841 1005.827 25.75 1005.669 C 25.659 1005.511 25.709 1005.324 25.867 1005.233 C 25.907 1005.211 25.947 1005.198 25.988 1005.192 Z M 58.314 1005.325 C 58.356 1005.33 58.393 1005.351 58.436 1005.351 C 58.478 1005.351 58.515 1005.33 58.557 1005.325 L 60.291 1013.882 C 59.99 1014.063 59.75 1014.336 59.613 1014.663 L 53.529 1017.868 L 53.529 1012.087 C 53.529 1011.567 53.348 1011.09 53.055 1010.704 L 58.314 1005.325 Z M 36.133 1006.247 C 36.496 1006.247 36.779 1006.531 36.779 1006.894 C 36.779 1007.257 36.496 1007.54 36.133 1007.54 C 35.77 1007.54 35.486 1007.257 35.486 1006.894 C 35.486 1006.531 35.77 1006.247 36.133 1006.247 Z M 26.953 1006.44 L 34.563 1007.358 C 34.766 1008.036 35.392 1008.54 36.133 1008.54 C 36.685 1008.54 37.173 1008.26 37.473 1007.839 L 40.939 1009.79 L 21.121 1009.79 L 25.539 1006.71 C 25.904 1006.857 26.322 1006.861 26.686 1006.651 C 26.787 1006.593 26.874 1006.52 26.953 1006.44 Z M 7.133 1008.247 C 7.496 1008.247 7.779 1008.531 7.779 1008.894 C 7.779 1009.257 7.496 1009.54 7.133 1009.54 C 6.77 1009.54 6.486 1009.257 6.486 1008.894 C 6.486 1008.531 6.77 1008.247 7.133 1008.247 Z M 8.387 1009.944 L 9.898 1010.849 C 9.668 1011.207 9.529 1011.631 9.529 1012.087 L 9.529 1022.476 L 7.947 1024.136 C 7.796 1024.075 7.632 1024.04 7.461 1024.04 C 7.294 1024.04 7.136 1024.074 6.988 1024.132 L 2.701 1018.911 C 2.831 1018.694 2.91 1018.444 2.91 1018.175 C 2.91 1017.837 2.788 1017.527 2.592 1017.278 L 6.594 1010.44 C 6.764 1010.5 6.943 1010.54 7.133 1010.54 C 7.636 1010.54 8.084 1010.305 8.387 1009.944 Z M 11.82 1010.79 L 51.238 1010.79 C 51.962 1010.79 52.529 1011.36 52.529 1012.087 L 52.529 1035.819 L 10.529 1035.819 L 10.529 1012.087 C 10.529 1011.36 11.097 1010.79 11.82 1010.79 Z M 13.029 1012.806 C 12.753 1012.806 12.529 1013.029 12.529 1013.306 L 12.529 1033.306 C 12.529 1033.582 12.753 1033.806 13.029 1033.806 L 50.029 1033.806 C 50.305 1033.806 50.529 1033.582 50.529 1033.306 L 50.529 1013.306 C 50.529 1013.029 50.305 1012.806 50.029 1012.806 L 13.029 1012.806 Z M 13.529 1013.806 C 34.203 1013.806 49.543 1013.806 49.529 1013.806 L 49.529 1032.806 L 13.529 1032.806 L 13.529 1013.806 Z M 61.133 1014.644 C 61.496 1014.644 61.779 1014.927 61.779 1015.29 C 61.779 1015.653 61.496 1015.936 61.133 1015.936 C 60.77 1015.936 60.486 1015.653 60.486 1015.29 C 60.486 1014.927 60.77 1014.644 61.133 1014.644 Z M 59.58 1015.811 C 59.695 1016.148 59.91 1016.439 60.197 1016.64 L 56.92 1024.052 C 56.882 1024.048 56.845 1024.04 56.807 1024.04 C 56.084 1024.04 55.486 1024.638 55.486 1025.36 C 55.486 1025.653 55.603 1025.91 55.768 1026.13 L 53.529 1030.212 L 53.529 1018.999 L 59.58 1015.811 Z M 1.455 1017.72 C 1.712 1017.72 1.91 1017.917 1.91 1018.175 C 1.91 1018.432 1.712 1018.63 1.455 1018.63 C 1.198 1018.63 1 1018.432 1 1018.175 C 1 1017.917 1.198 1017.72 1.455 1017.72 Z M 9.529 1023.923 L 9.529 1035.819 L 7.029 1035.819 C 7.021 1035.82 7.012 1035.82 7.004 1035.821 L 4.678 1034.438 C 4.739 1034.266 4.779 1034.086 4.779 1033.894 C 4.779 1033.389 4.544 1032.939 4.182 1032.636 L 7.41 1026.673 C 7.427 1026.673 7.444 1026.679 7.461 1026.679 C 8.183 1026.679 8.779 1026.083 8.779 1025.36 C 8.779 1025.172 8.737 1024.994 8.664 1024.831 L 9.529 1023.923 Z M 7.461 1025.04 C 7.643 1025.04 7.779 1025.178 7.779 1025.36 C 7.779 1025.542 7.643 1025.679 7.461 1025.679 C 7.279 1025.679 7.143 1025.542 7.143 1025.36 C 7.143 1025.178 7.279 1025.04 7.461 1025.04 Z M 56.807 1025.04 C 56.989 1025.04 57.125 1025.178 57.125 1025.36 C 57.125 1025.542 56.989 1025.679 56.807 1025.679 C 56.625 1025.679 56.486 1025.542 56.486 1025.36 C 56.486 1025.178 56.625 1025.04 56.807 1025.04 Z M 56.617 1026.659 C 56.68 1026.668 56.742 1026.679 56.807 1026.679 C 56.811 1026.679 56.816 1026.677 56.82 1026.677 L 58.963 1032.565 C 58.551 1032.866 58.279 1033.35 58.279 1033.894 C 58.279 1034.134 58.336 1034.359 58.43 1034.565 L 56.188 1035.845 C 56.136 1035.828 56.083 1035.819 56.029 1035.819 L 53.529 1035.819 L 53.529 1032.29 L 56.617 1026.659 Z M 3.133 1033.247 C 3.496 1033.247 3.779 1033.531 3.779 1033.894 C 3.779 1034.257 3.496 1034.54 3.133 1034.54 C 2.77 1034.54 2.486 1034.257 2.486 1033.894 C 2.486 1033.531 2.77 1033.247 3.133 1033.247 Z M 59.926 1033.247 C 60.289 1033.247 60.572 1033.531 60.572 1033.894 C 60.572 1034.257 60.289 1034.54 59.926 1034.54 C 59.563 1034.54 59.279 1034.257 59.279 1033.894 C 59.279 1033.531 59.563 1033.247 59.926 1033.247 Z M 7.629 1036.819 L 26.529 1036.819 L 26.529 1037.647 C 26.529 1038.643 27.327 1039.474 28.316 1039.474 L 34.744 1039.474 C 35.733 1039.474 36.529 1038.643 36.529 1037.647 L 36.529 1036.819 L 55.43 1036.819 C 55.173 1039.054 53.366 1040.79 51.057 1040.79 L 12.002 1040.79 C 9.693 1040.79 7.886 1039.054 7.629 1036.819 Z M 27.529 1036.819 L 35.529 1036.819 L 35.529 1037.647 C 35.529 1038.123 35.179 1038.474 34.744 1038.474 L 28.316 1038.474 C 27.881 1038.474 27.529 1038.123 27.529 1037.647 L 27.529 1036.819 Z" id="rect17290"></path>
  </g>
  <g transform="matrix(0.012926, 0, 0, -0.012926, 325.004578, 250.856369)" fill="#000000" stroke="none" style="">
    <path d="M1315 2863 c-175 -23 -349 -75 -496 -149 -397 -199 -674 -551 -777
-988 -23 -99 -26 -131 -27 -306 0 -220 12 -301 72 -474 167 -482 566 -830
1062 -926 52 -10 97 -17 99 -16 2 2 -16 19 -40 38 -28 23 -74 44 -130 62 -197
60 -406 191 -552 347 -139 148 -237 312 -296 496 -80 249 -80 529 0 788 53
170 168 355 309 496 243 243 536 364 876 363 151 -1 250 -16 385 -61 392 -132
694 -467 784 -873 l17 -75 200 -103 199 -103 0 33 c0 51 -28 232 -46 301 -68
264 -197 495 -384 690 -237 248 -529 400 -870 452 -86 13 -309 18 -385 8z" style="stroke-linejoin: round; stroke-linecap: round;"></path>
    <path d="M 1639 1713 C 1518 1620 1409 1540 1397 1534 C 1385 1528 1357 1514 1335 1504 C 1280 1478 1250 1430 1250 1367 C 1250 1212 1445 1156 1531 1286 C 1541 1302 1550 1323 1550 1333 C 1550 1343 1585 1397 1629 1453 C 1808 1685 2161.889 2085.298 2161.889 2099.298 C 2161.889 2118.298 2160.176 2117.072 2142.176 2117.072 C 2135.176 2117.072 1761 1805 1639 1713 Z" style="stroke-linejoin: round; stroke-linecap: round;"></path>
  </g>
  <path transform="matrix(0.109661, 0, 0, 0.096885, 295.954041, 169.794067)" d="M 414.857 500.05 A 51.5 51.5 0 0 1 414.857 570.95 A 51.5 51.5 0 0 0 414.857 500.05 Z" data-bx-shape="crescent 377.5 535.5 51.5 87 1 1@b0d120a4"></path>
  <path transform="matrix(0.109661, 0, 0, 0.067074, 295.954041, 183.458084)" d="M 465.857 446.05 A 51.5 51.5 0 0 1 465.857 516.95 A 51.5 51.5 0 0 0 465.857 446.05 Z" data-bx-shape="crescent 428.5 481.5 51.5 87 1 1@dc33c5a5"></path>

</svg>