<?xml version="1.0" standalone="no"?>
<!DOCTYPE svg PUBLIC "-//W3C//DTD SVG 20010904//EN"
 "http://www.w3.org/TR/2001/REC-SVG-20010904/DTD/svg10.dtd">
<svg version="1.0" xmlns="http://www.w3.org/2000/svg"
 viewBox="0 0 300.000000 288.000000"
 preserveAspectRatio="xMidYMid meet">
<metadata>
Created by potrace 1.10, written by Peter Selinger 2001-2011
</metadata>
<g transform="translate(0.000000,288.000000) scale(0.100000,-0.100000)"
fill="#000000" stroke="none">
<path d="M1315 2863 c-175 -23 -349 -75 -496 -149 -397 -199 -674 -551 -777
-988 -23 -99 -26 -131 -27 -306 0 -220 12 -301 72 -474 167 -482 566 -830
1062 -926 52 -10 97 -17 99 -16 2 2 -16 19 -40 38 -28 23 -74 44 -130 62 -197
60 -406 191 -552 347 -139 148 -237 312 -296 496 -80 249 -80 529 0 788 53
170 168 355 309 496 243 243 536 364 876 363 151 -1 250 -16 385 -61 392 -132
694 -467 784 -873 l17 -75 200 -103 199 -103 0 33 c0 51 -28 232 -46 301 -68
264 -197 495 -384 690 -237 248 -529 400 -870 452 -86 13 -309 18 -385 8z"/>
<path d="M1305 2450 c-450 -37 -843 -369 -956 -808 -63 -248 -38 -509 71 -739
116 -245 327 -445 574 -543 350 -139 751 -89 1042 128 201 150 342 351 408
583 165 579 -178 1189 -756 1344 -51 14 -122 27 -158 30 -36 3 -81 7 -100 9
-19 1 -76 0 -125 -4z m263 -246 c268 -55 501 -239 609 -483 48 -107 65 -180
70 -312 6 -146 -10 -250 -59 -367 -58 -141 -175 -286 -299 -375 -66 -47 -191
-103 -284 -128 -111 -30 -297 -29 -410 0 -264 70 -481 257 -583 504 -80 193
-83 430 -8 631 145 384 561 613 964 530z"/>
<path d="M1639 1713 c-121 -93 -230 -173 -242 -179 -12 -6 -40 -20 -62 -30
-55 -26 -85 -74 -85 -137 0 -155 195 -211 281 -81 10 16 19 37 19 47 0 10 35
64 79 120 179 232 281 373 281 387 0 19 -19 40 -37 40 -7 0 -112 -75 -234
-167z"/>
</g>
</svg>
